<svg xmlns="http://www.w3.org/2000/svg" viewBox="0 0 650 160">
<style>
  text { font-family: 'Segoe UI', Arial, sans-serif; }
  .title { font-size: 16px; font-weight: bold; fill: #1B4F72; }
  .subtitle { font-size: 12px; fill: #666; }
  .label { font-size: 12px; fill: #2C3E50; }
  .label-b { font-size: 12px; fill: #2C3E50; font-weight: bold; }
  .label-s { font-size: 10px; fill: #666; }
  .code { font-family: 'Courier New', monospace; font-size: 10px; fill: #2C3E50; }
  .warn { font-size: 11px; fill: #E74C3C; font-weight: bold; }
  .note { font-size: 10px; fill: #1B4F72; }
</style>
<text x="325" y="18" text-anchor="middle" class="title">Button Bounce vs Debounced Signal</text>
<text x="60" y="55" class="label-b">btn_raw</text>
<g transform="translate(130,30)">
  <polyline points="0,30 30,30 30,0 32,30 35,0 37,30 40,0 42,30 45,0 50,0 120,0 120,30 122,0 125,30 127,0 130,30 135,30 400,30" fill="none" stroke="#E74C3C" stroke-width="2"/>
  <text x="35" y="-5" class="label-s" fill="#E74C3C">bouncing!</text>
  <text x="122" y="-5" class="label-s" fill="#E74C3C">bouncing!</text>
  <rect x="30" y="-10" width="25" height="7" fill="#FADBD8" rx="2"/>
  <rect x="120" y="-10" width="18" height="7" fill="#FADBD8" rx="2"/>
</g>
<text x="60" y="110" class="label-b">btn_pulse</text>
<g transform="translate(130,85)">
  <polyline points="0,30 90,30 90,0 100,0 100,30 400,30" fill="none" stroke="#1E8449" stroke-width="2"/>
  <text x="85" y="-5" class="label-s" fill="#1E8449">1-clk pulse (clean!)</text>
  <line x1="50" y1="-15" x2="50" y2="35" stroke="#999" stroke-dasharray="3,3"/>
  <text x="52" y="-18" class="label-s">20ms wait</text>
</g>
</svg>