<svg xmlns="http://www.w3.org/2000/svg" viewBox="0 0 650 160">
<style>
  text { font-family: 'Segoe UI', Arial, sans-serif; }
  .title { font-size: 16px; font-weight: bold; fill: #1B4F72; }
  .label-b { font-size: 12px; fill: #2C3E50; font-weight: bold; }
  .label-s { font-size: 10px; fill: #666; }
</style>
<text x="325" y="18" text-anchor="middle" class="title">Button Bounce vs Debounced Signal (Active Low)</text>
<text x="60" y="55" class="label-b">btn_raw</text>
<text x="60" y="68" class="label-s">(active low)</text>
<g transform="translate(130,30)">
  <!-- Idle=HIGH, pressed=LOW with bouncing -->
  <polyline points="0,0 30,0 30,30 32,0 35,30 37,0 40,30 42,0 45,30 50,30 120,30 120,0 122,30 125,0 127,30 130,0 135,0 400,0" fill="none" stroke="#E74C3C" stroke-width="2"/>
  <text x="0" y="-5" class="label-s" fill="#1E8449">HIGH (idle)</text>
  <text x="35" y="45" class="label-s" fill="#E74C3C">bouncing!</text>
  <text x="55" y="25" class="label-s" fill="#1B4F72">LOW (pressed)</text>
  <text x="122" y="45" class="label-s" fill="#E74C3C">bouncing!</text>
  <text x="160" y="-5" class="label-s" fill="#1E8449">HIGH (released)</text>
  <rect x="30" y="33" width="25" height="7" fill="#FADBD8" rx="2"/>
  <rect x="120" y="33" width="18" height="7" fill="#FADBD8" rx="2"/>
</g>
<text x="60" y="120" class="label-b">btn_pulse</text>
<g transform="translate(130,95)">
  <!-- Clean 1-clk pulse after debounce wait -->
  <polyline points="0,30 90,30 90,0 100,0 100,30 400,30" fill="none" stroke="#1E8449" stroke-width="2"/>
  <text x="85" y="-5" class="label-s" fill="#1E8449">1-clk pulse (clean!)</text>
  <line x1="50" y1="-15" x2="50" y2="35" stroke="#999" stroke-dasharray="3,3"/>
  <text x="52" y="-18" class="label-s">20ms wait</text>
</g>
</svg>
